<svg width="25" height="16" viewBox="0 0 25 16" fill="none" xmlns="http://www.w3.org/2000/svg">
<path d="M25 4.79522L21.4629 12.0718H8.14807L3.4866 2.13904H0L0.0252652 0.805851H4.61092L9.27239 10.7386H20.3259L23.1178 4.79522" fill="white"/>
<path d="M18.1657 16C19.0727 16 19.808 15.4077 19.808 14.677C19.808 13.9463 19.0727 13.354 18.1657 13.354C17.2587 13.354 16.5235 13.9463 16.5235 14.677C16.5235 15.4077 17.2587 16 18.1657 16Z" fill="white"/>
<path d="M11.4704 16C12.3774 16 13.1127 15.4077 13.1127 14.677C13.1127 13.9463 12.3774 13.354 11.4704 13.354C10.5634 13.354 9.82819 13.9463 9.82819 14.677C9.82819 15.4077 10.5634 16 11.4704 16Z" fill="white"/>
<path d="M17 4.85762C17 5.58178 16.8389 6.11988 16.5168 6.47193C16.1948 6.82398 15.6913 7 15.0065 7C14.3304 7 13.8299 6.82843 13.5049 6.48529C13.1799 6.13993 13.0116 5.62523 13 4.94118V4.11564C13 3.4004 13.161 2.86898 13.483 2.52139C13.8052 2.1738 14.3101 2 14.9977 2C15.6797 2 16.1817 2.16823 16.5038 2.50468C16.8258 2.83891 16.9912 3.35584 17 4.05548V4.85762ZM16.1948 4.01203C16.1948 3.48842 16.099 3.1074 15.9075 2.86898C15.716 2.62834 15.4127 2.50803 14.9977 2.50803C14.5858 2.50803 14.2855 2.62724 14.0967 2.86564C13.9082 3.10406 13.811 3.47059 13.8052 3.96524V4.95455C13.8052 5.4804 13.9038 5.86921 14.1012 6.12099C14.3013 6.37054 14.6031 6.49532 15.0065 6.49532C15.4041 6.49532 15.6985 6.37723 15.89 6.14104C16.0845 5.90486 16.186 5.53276 16.1948 5.02474V4.01203Z" fill="white"/>
</svg>
